{
    "asset" : {
        "generator" : "Khronos glTF Blender I/O v1.0.5",
        "version" : "2.0"
    },
    "scene" : 0,
    "scenes" : [
        {
            "name" : "Scene",
            "nodes" : [
                0
            ]
        }
    ],
    "nodes" : [
        {
            "mesh" : 0,
            "name" : "Plane.006",
            "translation" : [
                3,
                0,
                0
            ]
        }
    ],
    "meshes" : [
        {
            "name" : "Plane.006",
            "primitives" : [
                {
                    "attributes" : {
                        "POSITION" : 0,
                        "NORMAL" : 1,
                        "TEXCOORD_0" : 2
                    },
                    "indices" : 3
                }
            ]
        }
    ],
    "accessors" : [
        {
            "bufferView" : 0,
            "componentType" : 5126,
            "count" : 7244,
            "max" : [
                1,
                5.587935447692871e-09,
                3
            ],
            "min" : [
                -7,
                -3.725290298461914e-09,
                -3
            ],
            "type" : "VEC3"
        },
        {
            "bufferView" : 1,
            "componentType" : 5126,
            "count" : 7244,
            "type" : "VEC3"
        },
        {
            "bufferView" : 2,
            "componentType" : 5126,
            "count" : 7244,
            "type" : "VEC2"
        },
        {
            "bufferView" : 3,
            "componentType" : 5123,
            "count" : 11400,
            "type" : "SCALAR"
        }
    ],
    "bufferViews" : [
        {
            "buffer" : 0,
            "byteLength" : 86928,
            "byteOffset" : 0
        },
        {
            "buffer" : 0,
            "byteLength" : 86928,
            "byteOffset" : 86928
        },
        {
            "buffer" : 0,
            "byteLength" : 57952,
            "byteOffset" : 173856
        },
        {
            "buffer" : 0,
            "byteLength" : 22800,
            "byteOffset" : 231808
        }
    ],
    "buffers" : [
        {
            "byteLength" : 254608,
            "uri" : "untitled1.bin"
        }
    ]
}
