{
    "asset" : {
        "generator" : "Khronos glTF Blender I/O v1.0.5",
        "version" : "2.0"
    },
    "scene" : 0,
    "scenes" : [
        {
            "name" : "Scene",
            "nodes" : [
                0,
                1
            ]
        }
    ],
    "nodes" : [
        {
            "mesh" : 0,
            "name" : "wheelsF",
            "rotation" : [
                0,
                0,
                -0.7071067690849304,
                0.7071068286895752
            ],
            "scale" : [
                0.08990342170000076,
                0.04495172202587128,
                0.08990342170000076
            ],
            "translation" : [
                0,
                0.09034773707389832,
                0.3869633376598358
            ]
        },
        {
            "mesh" : 1,
            "name" : "Driver",
            "scale" : [
                0.13485515117645264,
                0.13485515117645264,
                0.112379290163517
            ],
            "translation" : [
                0,
                0.19223830103874207,
                -0.18466205894947052
            ]
        }
    ],
    "materials" : [
        {
            "doubleSided" : true,
            "name" : "Material.001",
            "pbrMetallicRoughness" : {
                "baseColorFactor" : [
                    0,
                    0,
                    0,
                    1
                ],
                "metallicFactor" : 0,
                "roughnessFactor" : 0.5
            }
        },
        {
            "doubleSided" : true,
            "name" : "Material.003",
            "pbrMetallicRoughness" : {
                "baseColorFactor" : [
                    0,
                    1,
                    0,
                    1
                ],
                "metallicFactor" : 0,
                "roughnessFactor" : 0.5
            }
        },
        {
            "doubleSided" : true,
            "name" : "Material",
            "pbrMetallicRoughness" : {
                "baseColorFactor" : [
                    1,
                    0,
                    0,
                    1
                ],
                "metallicFactor" : 0.8282828330993652,
                "roughnessFactor" : 0.4000000059604645
            }
        }
    ],
    "meshes" : [
        {
            "name" : "Cylinder.002",
            "primitives" : [
                {
                    "attributes" : {
                        "POSITION" : 0,
                        "NORMAL" : 1,
                        "TEXCOORD_0" : 2
                    },
                    "indices" : 3,
                    "material" : 0
                }
            ]
        },
        {
            "name" : "Sphere",
            "primitives" : [
                {
                    "attributes" : {
                        "POSITION" : 4,
                        "NORMAL" : 5,
                        "TEXCOORD_0" : 6
                    },
                    "indices" : 7,
                    "material" : 1
                },
                {
                    "attributes" : {
                        "POSITION" : 8,
                        "NORMAL" : 9,
                        "TEXCOORD_0" : 10
                    },
                    "indices" : 11,
                    "material" : 2
                },
                {
                    "attributes" : {
                        "POSITION" : 12,
                        "NORMAL" : 13,
                        "TEXCOORD_0" : 14
                    },
                    "indices" : 15
                }
            ]
        }
    ],
    "accessors" : [
        {
            "bufferView" : 0,
            "componentType" : 5126,
            "count" : 390,
            "max" : [
                1,
                7.6666669845581055,
                0.9999999403953552
            ],
            "min" : [
                -1.0000001192092896,
                -7.666665077209473,
                -1.0000001192092896
            ],
            "type" : "VEC3"
        },
        {
            "bufferView" : 1,
            "componentType" : 5126,
            "count" : 390,
            "type" : "VEC3"
        },
        {
            "bufferView" : 2,
            "componentType" : 5126,
            "count" : 390,
            "type" : "VEC2"
        },
        {
            "bufferView" : 3,
            "componentType" : 5123,
            "count" : 1116,
            "type" : "SCALAR"
        },
        {
            "bufferView" : 4,
            "componentType" : 5126,
            "count" : 1115,
            "max" : [
                1.0633679628372192,
                1.6682302951812744,
                1.4369988441467285
            ],
            "min" : [
                -1.0633679628372192,
                -1,
                -1
            ],
            "type" : "VEC3"
        },
        {
            "bufferView" : 5,
            "componentType" : 5126,
            "count" : 1115,
            "type" : "VEC3"
        },
        {
            "bufferView" : 6,
            "componentType" : 5126,
            "count" : 1115,
            "type" : "VEC2"
        },
        {
            "bufferView" : 7,
            "componentType" : 5123,
            "count" : 5784,
            "type" : "SCALAR"
        },
        {
            "bufferView" : 8,
            "componentType" : 5126,
            "count" : 186,
            "max" : [
                3.1455647945404053,
                2.222222328186035,
                10.366576194763184
            ],
            "min" : [
                -3.143324851989746,
                -1.168444275856018,
                -6.9667582511901855
            ],
            "type" : "VEC3"
        },
        {
            "bufferView" : 9,
            "componentType" : 5126,
            "count" : 186,
            "type" : "VEC3"
        },
        {
            "bufferView" : 10,
            "componentType" : 5126,
            "count" : 186,
            "type" : "VEC2"
        },
        {
            "bufferView" : 11,
            "componentType" : 5123,
            "count" : 252,
            "type" : "SCALAR"
        },
        {
            "bufferView" : 12,
            "componentType" : 5126,
            "count" : 390,
            "max" : [
                4.259260654449463,
                0.8333337306976318,
                -3.028923988342285
            ],
            "min" : [
                -4.2592597007751465,
                -1.3888896703720093,
                -5.695590972900391
            ],
            "type" : "VEC3"
        },
        {
            "bufferView" : 13,
            "componentType" : 5126,
            "count" : 390,
            "type" : "VEC3"
        },
        {
            "bufferView" : 14,
            "componentType" : 5126,
            "count" : 390,
            "type" : "VEC2"
        },
        {
            "bufferView" : 15,
            "componentType" : 5123,
            "count" : 1116,
            "type" : "SCALAR"
        }
    ],
    "bufferViews" : [
        {
            "buffer" : 0,
            "byteLength" : 4680,
            "byteOffset" : 0
        },
        {
            "buffer" : 0,
            "byteLength" : 4680,
            "byteOffset" : 4680
        },
        {
            "buffer" : 0,
            "byteLength" : 3120,
            "byteOffset" : 9360
        },
        {
            "buffer" : 0,
            "byteLength" : 2232,
            "byteOffset" : 12480
        },
        {
            "buffer" : 0,
            "byteLength" : 13380,
            "byteOffset" : 14712
        },
        {
            "buffer" : 0,
            "byteLength" : 13380,
            "byteOffset" : 28092
        },
        {
            "buffer" : 0,
            "byteLength" : 8920,
            "byteOffset" : 41472
        },
        {
            "buffer" : 0,
            "byteLength" : 11568,
            "byteOffset" : 50392
        },
        {
            "buffer" : 0,
            "byteLength" : 2232,
            "byteOffset" : 61960
        },
        {
            "buffer" : 0,
            "byteLength" : 2232,
            "byteOffset" : 64192
        },
        {
            "buffer" : 0,
            "byteLength" : 1488,
            "byteOffset" : 66424
        },
        {
            "buffer" : 0,
            "byteLength" : 504,
            "byteOffset" : 67912
        },
        {
            "buffer" : 0,
            "byteLength" : 4680,
            "byteOffset" : 68416
        },
        {
            "buffer" : 0,
            "byteLength" : 4680,
            "byteOffset" : 73096
        },
        {
            "buffer" : 0,
            "byteLength" : 3120,
            "byteOffset" : 77776
        },
        {
            "buffer" : 0,
            "byteLength" : 2232,
            "byteOffset" : 80896
        }
    ],
    "buffers" : [
        {
            "byteLength" : 83128,
            "uri" : "formula.bin"
        }
    ]
}
