{
    "asset" : {
        "generator" : "Khronos glTF Blender I/O v1.0.5",
        "version" : "2.0"
    },
    "scene" : 0,
    "scenes" : [
        {
            "name" : "Scene",
            "nodes" : [
                0,
                1,
                2,
                3,
                4
            ]
        }
    ],
    "nodes" : [
        {
            "name" : "Light",
            "rotation" : [
                0.16907575726509094,
                0.7558803558349609,
                -0.27217137813568115,
                0.570947527885437
            ],
            "translation" : [
                4.076245307922363,
                5.903861999511719,
                -1.0054539442062378
            ]
        },
        {
            "mesh" : 0,
            "name" : "wheelsF",
            "rotation" : [
                0,
                0,
                -0.7071067690849304,
                0.7071068286895752
            ],
            "scale" : [
                0.5999999046325684,
                0.30000001192092896,
                0.5999999046325684
            ],
            "translation" : [
                0,
                0.3199997842311859,
                -0.9599998593330383
            ]
        },
        {
            "mesh" : 1,
            "name" : "Driver",
            "scale" : [
                0.8999999761581421,
                0.8999999761581421,
                0.75
            ],
            "translation" : [
                0,
                1,
                -4.774930953979492
            ]
        },
        {
            "mesh" : 2,
            "name" : "chassie",
            "scale" : [
                0.5,
                0.75,
                1
            ],
            "translation" : [
                -0.001007881248369813,
                0.673938512802124,
                -6.194699287414551
            ]
        },
        {
            "mesh" : 3,
            "name" : "wheelsB",
            "rotation" : [
                0,
                0,
                -0.7071067690849304,
                0.7071068286895752
            ],
            "scale" : [
                1,
                0.5000001192092896,
                1
            ],
            "translation" : [
                0,
                0.7499997615814209,
                -8.046625137329102
            ]
        }
    ],
    "materials" : [
        {
            "doubleSided" : true,
            "name" : "Material",
            "pbrMetallicRoughness" : {
                "baseColorFactor" : [
                    0.800000011920929,
                    0.800000011920929,
                    0.800000011920929,
                    1
                ],
                "metallicFactor" : 0,
                "roughnessFactor" : 0.4000000059604645
            }
        }
    ],
    "meshes" : [
        {
            "name" : "Cylinder.002",
            "primitives" : [
                {
                    "attributes" : {
                        "POSITION" : 0,
                        "NORMAL" : 1,
                        "TEXCOORD_0" : 2
                    },
                    "indices" : 3
                }
            ]
        },
        {
            "name" : "Sphere",
            "primitives" : [
                {
                    "attributes" : {
                        "POSITION" : 4,
                        "NORMAL" : 5,
                        "TEXCOORD_0" : 6
                    },
                    "indices" : 7
                }
            ]
        },
        {
            "name" : "Cube.003",
            "primitives" : [
                {
                    "attributes" : {
                        "POSITION" : 8,
                        "NORMAL" : 9,
                        "TEXCOORD_0" : 10
                    },
                    "indices" : 11,
                    "material" : 0
                }
            ]
        },
        {
            "name" : "Cylinder.000",
            "primitives" : [
                {
                    "attributes" : {
                        "POSITION" : 12,
                        "NORMAL" : 13,
                        "TEXCOORD_0" : 14
                    },
                    "indices" : 3
                }
            ]
        }
    ],
    "accessors" : [
        {
            "bufferView" : 0,
            "componentType" : 5126,
            "count" : 576,
            "max" : [
                1,
                7.6666669845581055,
                0.9999999403953552
            ],
            "min" : [
                -1.0000001192092896,
                -7.666665077209473,
                -1.0000001192092896
            ],
            "type" : "VEC3"
        },
        {
            "bufferView" : 1,
            "componentType" : 5126,
            "count" : 576,
            "type" : "VEC3"
        },
        {
            "bufferView" : 2,
            "componentType" : 5126,
            "count" : 576,
            "type" : "VEC2"
        },
        {
            "bufferView" : 3,
            "componentType" : 5123,
            "count" : 1116,
            "type" : "SCALAR"
        },
        {
            "bufferView" : 4,
            "componentType" : 5126,
            "count" : 3952,
            "max" : [
                1.0633679628372192,
                1.6682302951812744,
                1.4369988441467285
            ],
            "min" : [
                -1.0633679628372192,
                -1,
                -1
            ],
            "type" : "VEC3"
        },
        {
            "bufferView" : 5,
            "componentType" : 5126,
            "count" : 3952,
            "type" : "VEC3"
        },
        {
            "bufferView" : 6,
            "componentType" : 5126,
            "count" : 3952,
            "type" : "VEC2"
        },
        {
            "bufferView" : 7,
            "componentType" : 5123,
            "count" : 5784,
            "type" : "SCALAR"
        },
        {
            "bufferView" : 8,
            "componentType" : 5126,
            "count" : 186,
            "max" : [
                5.662015914916992,
                3.1014153957366943,
                9.194698333740234
            ],
            "min" : [
                -5.657983779907227,
                -0.9673845767974854,
                -3.805300712585449
            ],
            "type" : "VEC3"
        },
        {
            "bufferView" : 9,
            "componentType" : 5126,
            "count" : 186,
            "type" : "VEC3"
        },
        {
            "bufferView" : 10,
            "componentType" : 5126,
            "count" : 186,
            "type" : "VEC2"
        },
        {
            "bufferView" : 11,
            "componentType" : 5123,
            "count" : 252,
            "type" : "SCALAR"
        },
        {
            "bufferView" : 12,
            "componentType" : 5126,
            "count" : 576,
            "max" : [
                1,
                7.6666669845581055,
                0.9999999403953552
            ],
            "min" : [
                -1.0000001192092896,
                -7.666665077209473,
                -1.0000001192092896
            ],
            "type" : "VEC3"
        },
        {
            "bufferView" : 13,
            "componentType" : 5126,
            "count" : 576,
            "type" : "VEC3"
        },
        {
            "bufferView" : 14,
            "componentType" : 5126,
            "count" : 576,
            "type" : "VEC2"
        }
    ],
    "bufferViews" : [
        {
            "buffer" : 0,
            "byteLength" : 6912,
            "byteOffset" : 0
        },
        {
            "buffer" : 0,
            "byteLength" : 6912,
            "byteOffset" : 6912
        },
        {
            "buffer" : 0,
            "byteLength" : 4608,
            "byteOffset" : 13824
        },
        {
            "buffer" : 0,
            "byteLength" : 2232,
            "byteOffset" : 18432
        },
        {
            "buffer" : 0,
            "byteLength" : 47424,
            "byteOffset" : 20664
        },
        {
            "buffer" : 0,
            "byteLength" : 47424,
            "byteOffset" : 68088
        },
        {
            "buffer" : 0,
            "byteLength" : 31616,
            "byteOffset" : 115512
        },
        {
            "buffer" : 0,
            "byteLength" : 11568,
            "byteOffset" : 147128
        },
        {
            "buffer" : 0,
            "byteLength" : 2232,
            "byteOffset" : 158696
        },
        {
            "buffer" : 0,
            "byteLength" : 2232,
            "byteOffset" : 160928
        },
        {
            "buffer" : 0,
            "byteLength" : 1488,
            "byteOffset" : 163160
        },
        {
            "buffer" : 0,
            "byteLength" : 504,
            "byteOffset" : 164648
        },
        {
            "buffer" : 0,
            "byteLength" : 6912,
            "byteOffset" : 165152
        },
        {
            "buffer" : 0,
            "byteLength" : 6912,
            "byteOffset" : 172064
        },
        {
            "buffer" : 0,
            "byteLength" : 4608,
            "byteOffset" : 178976
        }
    ],
    "buffers" : [
        {
            "byteLength" : 183584,
            "uri" : "formula.bin"
        }
    ]
}
