{
    "asset" : {
        "generator" : "Khronos glTF Blender I/O v1.0.5",
        "version" : "2.0"
    },
    "scene" : 0,
    "scenes" : [
        {
            "name" : "Scene",
            "nodes" : [
                0
            ]
        }
    ],
    "nodes" : [
        {
            "mesh" : 0,
            "name" : "formula",
            "rotation" : [
                0,
                0,
                -0.7071067690849304,
                0.7071068286895752
            ],
            "scale" : [
                0.08990342170000076,
                0.04495172202587128,
                0.08990342170000076
            ],
            "translation" : [
                4.363364860182628e-05,
                0.14861759543418884,
                -0.3916468322277069
            ]
        }
    ],
    "materials" : [
        {
            "doubleSided" : true,
            "name" : "black",
            "pbrMetallicRoughness" : {
                "baseColorFactor" : [
                    0,
                    0,
                    0,
                    1
                ],
                "metallicFactor" : 0,
                "roughnessFactor" : 0.5
            }
        },
        {
            "doubleSided" : true,
            "name" : "green",
            "pbrMetallicRoughness" : {
                "baseColorFactor" : [
                    0,
                    1,
                    0,
                    1
                ],
                "metallicFactor" : 0,
                "roughnessFactor" : 0.5
            }
        },
        {
            "doubleSided" : true,
            "name" : "red",
            "pbrMetallicRoughness" : {
                "baseColorFactor" : [
                    1,
                    0,
                    0,
                    1
                ],
                "metallicFactor" : 0.8282828330993652,
                "roughnessFactor" : 0.4000000059604645
            }
        },
        {
            "doubleSided" : true,
            "name" : "blackB",
            "pbrMetallicRoughness" : {
                "baseColorFactor" : [
                    0,
                    0,
                    0,
                    1
                ],
                "metallicFactor" : 0,
                "roughnessFactor" : 0.5
            }
        }
    ],
    "meshes" : [
        {
            "name" : "Cylinder.002",
            "primitives" : [
                {
                    "attributes" : {
                        "POSITION" : 0,
                        "NORMAL" : 1,
                        "TEXCOORD_0" : 2
                    },
                    "indices" : 3,
                    "material" : 0
                },
                {
                    "attributes" : {
                        "POSITION" : 4,
                        "NORMAL" : 5,
                        "TEXCOORD_0" : 6
                    },
                    "indices" : 7,
                    "material" : 1
                },
                {
                    "attributes" : {
                        "POSITION" : 8,
                        "NORMAL" : 9,
                        "TEXCOORD_0" : 10
                    },
                    "indices" : 11,
                    "material" : 2
                },
                {
                    "attributes" : {
                        "POSITION" : 12,
                        "NORMAL" : 13,
                        "TEXCOORD_0" : 14
                    },
                    "indices" : 15,
                    "material" : 3
                }
            ]
        }
    ],
    "accessors" : [
        {
            "bufferView" : 0,
            "componentType" : 5126,
            "count" : 390,
            "max" : [
                1.6481385231018066,
                7.665694236755371,
                9.660517692565918
            ],
            "min" : [
                -0.3518616557121277,
                -7.667637825012207,
                7.660517692565918
            ],
            "type" : "VEC3"
        },
        {
            "bufferView" : 1,
            "componentType" : 5126,
            "count" : 390,
            "type" : "VEC3"
        },
        {
            "bufferView" : 2,
            "componentType" : 5126,
            "count" : 390,
            "type" : "VEC2"
        },
        {
            "bufferView" : 3,
            "componentType" : 5123,
            "count" : 1116,
            "type" : "SCALAR"
        },
        {
            "bufferView" : 4,
            "componentType" : 5126,
            "count" : 1115,
            "max" : [
                1.0148050785064697,
                3.189131736755371,
                4.098550796508789
            ],
            "min" : [
                -2.9875407218933105,
                -3.191074848175049,
                1.0523018836975098
            ],
            "type" : "VEC3"
        },
        {
            "bufferView" : 5,
            "componentType" : 5126,
            "count" : 1115,
            "type" : "VEC3"
        },
        {
            "bufferView" : 6,
            "componentType" : 5126,
            "count" : 1115,
            "type" : "VEC2"
        },
        {
            "bufferView" : 7,
            "componentType" : 5123,
            "count" : 5784,
            "type" : "SCALAR"
        },
        {
            "bufferView" : 8,
            "componentType" : 5126,
            "count" : 186,
            "max" : [
                1.2674717903137207,
                9.435721397399902,
                15.260522842407227
            ],
            "min" : [
                -3.818528652191162,
                -9.430944442749023,
                -6.406146049499512
            ],
            "type" : "VEC3"
        },
        {
            "bufferView" : 9,
            "componentType" : 5126,
            "count" : 186,
            "type" : "VEC3"
        },
        {
            "bufferView" : 10,
            "componentType" : 5126,
            "count" : 186,
            "type" : "VEC2"
        },
        {
            "bufferView" : 11,
            "componentType" : 5123,
            "count" : 252,
            "type" : "SCALAR"
        },
        {
            "bufferView" : 12,
            "componentType" : 5126,
            "count" : 390,
            "max" : [
                1.5981390476226807,
                12.77680778503418,
                -1.4838533401489258
            ],
            "min" : [
                -1.7351951599121094,
                -12.778748512268066,
                -4.817187309265137
            ],
            "type" : "VEC3"
        },
        {
            "bufferView" : 13,
            "componentType" : 5126,
            "count" : 390,
            "type" : "VEC3"
        },
        {
            "bufferView" : 14,
            "componentType" : 5126,
            "count" : 390,
            "type" : "VEC2"
        },
        {
            "bufferView" : 15,
            "componentType" : 5123,
            "count" : 1116,
            "type" : "SCALAR"
        }
    ],
    "bufferViews" : [
        {
            "buffer" : 0,
            "byteLength" : 4680,
            "byteOffset" : 0
        },
        {
            "buffer" : 0,
            "byteLength" : 4680,
            "byteOffset" : 4680
        },
        {
            "buffer" : 0,
            "byteLength" : 3120,
            "byteOffset" : 9360
        },
        {
            "buffer" : 0,
            "byteLength" : 2232,
            "byteOffset" : 12480
        },
        {
            "buffer" : 0,
            "byteLength" : 13380,
            "byteOffset" : 14712
        },
        {
            "buffer" : 0,
            "byteLength" : 13380,
            "byteOffset" : 28092
        },
        {
            "buffer" : 0,
            "byteLength" : 8920,
            "byteOffset" : 41472
        },
        {
            "buffer" : 0,
            "byteLength" : 11568,
            "byteOffset" : 50392
        },
        {
            "buffer" : 0,
            "byteLength" : 2232,
            "byteOffset" : 61960
        },
        {
            "buffer" : 0,
            "byteLength" : 2232,
            "byteOffset" : 64192
        },
        {
            "buffer" : 0,
            "byteLength" : 1488,
            "byteOffset" : 66424
        },
        {
            "buffer" : 0,
            "byteLength" : 504,
            "byteOffset" : 67912
        },
        {
            "buffer" : 0,
            "byteLength" : 4680,
            "byteOffset" : 68416
        },
        {
            "buffer" : 0,
            "byteLength" : 4680,
            "byteOffset" : 73096
        },
        {
            "buffer" : 0,
            "byteLength" : 3120,
            "byteOffset" : 77776
        },
        {
            "buffer" : 0,
            "byteLength" : 2232,
            "byteOffset" : 80896
        }
    ],
    "buffers" : [
        {
            "byteLength" : 83128,
            "uri" : "formulaOnePiece.bin"
        }
    ]
}
