{
    "asset" : {
        "generator" : "Khronos glTF Blender I/O v1.0.5",
        "version" : "2.0"
    },
    "scene" : 0,
    "scenes" : [
        {
            "name" : "Scene",
            "nodes" : [
                0,
                1,
                2,
                3
            ]
        }
    ],
    "nodes" : [
        {
            "mesh" : 0,
            "name" : "track",
            "translation" : [
                -24.99942970275879,
                0,
                0
            ]
        },
        {
            "mesh" : 1,
            "name" : "start",
            "scale" : [
                0.20000068843364716,
                2,
                0.20000000298023224
            ],
            "translation" : [
                -50,
                2.417640209197998,
                31
            ]
        },
        {
            "name" : "Sun",
            "translation" : [
                0.36187744140625,
                76.75244903564453,
                3.37158203125
            ]
        },
        {
            "mesh" : 2,
            "name" : "rails",
            "rotation" : [
                0,
                0,
                -0.7071067690849304,
                0.7071067690849304
            ],
            "scale" : [
                0.5,
                1,
                25
            ],
            "translation" : [
                -25.029823303222656,
                0.5170683264732361,
                11.504398345947266
            ]
        }
    ],
    "materials" : [
        {
            "doubleSided" : true,
            "name" : "Material.004",
            "pbrMetallicRoughness" : {
                "baseColorFactor" : [
                    0.26242709159851074,
                    0.26242709159851074,
                    0.26242709159851074,
                    1
                ],
                "metallicFactor" : 0,
                "roughnessFactor" : 1
            }
        },
        {
            "doubleSided" : true,
            "name" : "Material.002",
            "pbrMetallicRoughness" : {
                "metallicFactor" : 0,
                "roughnessFactor" : 0.5
            }
        },
        {
            "doubleSided" : true,
            "name" : "Material.005",
            "pbrMetallicRoughness" : {
                "baseColorFactor" : [
                    1,
                    0,
                    0,
                    1
                ],
                "metallicFactor" : 0,
                "roughnessFactor" : 0.5
            }
        }
    ],
    "meshes" : [
        {
            "name" : "BezierCurve.001",
            "primitives" : [
                {
                    "attributes" : {
                        "POSITION" : 0,
                        "NORMAL" : 1,
                        "TEXCOORD_0" : 2
                    },
                    "indices" : 3,
                    "material" : 0
                }
            ]
        },
        {
            "name" : "Cylinder.001",
            "primitives" : [
                {
                    "attributes" : {
                        "POSITION" : 4,
                        "NORMAL" : 5,
                        "TEXCOORD_0" : 6
                    },
                    "indices" : 7,
                    "material" : 0
                },
                {
                    "attributes" : {
                        "POSITION" : 8,
                        "NORMAL" : 9,
                        "TEXCOORD_0" : 10
                    },
                    "indices" : 11,
                    "material" : 1
                }
            ]
        },
        {
            "name" : "Plane",
            "primitives" : [
                {
                    "attributes" : {
                        "POSITION" : 12,
                        "NORMAL" : 13,
                        "TEXCOORD_0" : 14
                    },
                    "indices" : 15,
                    "material" : 2
                }
            ]
        }
    ],
    "accessors" : [
        {
            "bufferView" : 0,
            "componentType" : 5126,
            "count" : 884,
            "max" : [
                28.000642776489258,
                0.050353944301605225,
                73.00052642822266
            ],
            "min" : [
                -27.999176025390625,
                0,
                -73.00052642822266
            ],
            "type" : "VEC3"
        },
        {
            "bufferView" : 1,
            "componentType" : 5126,
            "count" : 884,
            "type" : "VEC3"
        },
        {
            "bufferView" : 2,
            "componentType" : 5126,
            "count" : 884,
            "type" : "VEC2"
        },
        {
            "bufferView" : 3,
            "componentType" : 5123,
            "count" : 1443,
            "type" : "SCALAR"
        },
        {
            "bufferView" : 4,
            "componentType" : 5126,
            "count" : 384,
            "max" : [
                15.999947547912598,
                0.791179895401001,
                1
            ],
            "min" : [
                -15.999945640563965,
                -1.208820104598999,
                -1
            ],
            "type" : "VEC3"
        },
        {
            "bufferView" : 5,
            "componentType" : 5126,
            "count" : 384,
            "type" : "VEC3"
        },
        {
            "bufferView" : 6,
            "componentType" : 5126,
            "count" : 384,
            "type" : "VEC2"
        },
        {
            "bufferView" : 7,
            "componentType" : 5123,
            "count" : 744,
            "type" : "SCALAR"
        },
        {
            "bufferView" : 8,
            "componentType" : 5126,
            "count" : 4,
            "max" : [
                14.499943733215332,
                0.791179895401001,
                1.060371488392775e-07
            ],
            "min" : [
                -14.499957084655762,
                0.2911798655986786,
                -1.125197996998395e-07
            ],
            "type" : "VEC3"
        },
        {
            "bufferView" : 9,
            "componentType" : 5126,
            "count" : 4,
            "type" : "VEC3"
        },
        {
            "bufferView" : 10,
            "componentType" : 5126,
            "count" : 4,
            "type" : "VEC2"
        },
        {
            "bufferView" : 11,
            "componentType" : 5123,
            "count" : 6,
            "type" : "SCALAR"
        },
        {
            "bufferView" : 12,
            "componentType" : 5126,
            "count" : 416,
            "max" : [
                1.0341390371322632,
                28.033634185791016,
                2.4599766731262207
            ],
            "min" : [
                -0.9658657908439636,
                -27.973983764648438,
                -3.3803281784057617
            ],
            "type" : "VEC3"
        },
        {
            "bufferView" : 13,
            "componentType" : 5126,
            "count" : 416,
            "type" : "VEC3"
        },
        {
            "bufferView" : 14,
            "componentType" : 5126,
            "count" : 416,
            "type" : "VEC2"
        },
        {
            "bufferView" : 15,
            "componentType" : 5123,
            "count" : 624,
            "type" : "SCALAR"
        }
    ],
    "bufferViews" : [
        {
            "buffer" : 0,
            "byteLength" : 10608,
            "byteOffset" : 0
        },
        {
            "buffer" : 0,
            "byteLength" : 10608,
            "byteOffset" : 10608
        },
        {
            "buffer" : 0,
            "byteLength" : 7072,
            "byteOffset" : 21216
        },
        {
            "buffer" : 0,
            "byteLength" : 2886,
            "byteOffset" : 28288
        },
        {
            "buffer" : 0,
            "byteLength" : 4608,
            "byteOffset" : 31176
        },
        {
            "buffer" : 0,
            "byteLength" : 4608,
            "byteOffset" : 35784
        },
        {
            "buffer" : 0,
            "byteLength" : 3072,
            "byteOffset" : 40392
        },
        {
            "buffer" : 0,
            "byteLength" : 1488,
            "byteOffset" : 43464
        },
        {
            "buffer" : 0,
            "byteLength" : 48,
            "byteOffset" : 44952
        },
        {
            "buffer" : 0,
            "byteLength" : 48,
            "byteOffset" : 45000
        },
        {
            "buffer" : 0,
            "byteLength" : 32,
            "byteOffset" : 45048
        },
        {
            "buffer" : 0,
            "byteLength" : 12,
            "byteOffset" : 45080
        },
        {
            "buffer" : 0,
            "byteLength" : 4992,
            "byteOffset" : 45092
        },
        {
            "buffer" : 0,
            "byteLength" : 4992,
            "byteOffset" : 50084
        },
        {
            "buffer" : 0,
            "byteLength" : 3328,
            "byteOffset" : 55076
        },
        {
            "buffer" : 0,
            "byteLength" : 1248,
            "byteOffset" : 58404
        }
    ],
    "buffers" : [
        {
            "byteLength" : 59652,
            "uri" : "steza.bin"
        }
    ]
}
