{
    "asset" : {
        "generator" : "Khronos glTF Blender I/O v1.0.5",
        "version" : "2.0"
    },
    "scene" : 0,
    "scenes" : [
        {
            "name" : "Scene",
            "nodes" : [
                0
            ]
        }
    ],
    "nodes" : [
        {
            "mesh" : 0,
            "name" : "steza",
            "rotation" : [
                0,
                0,
                -0.7071067690849304,
                0.7071067690849304
            ],
            "scale" : [
                0.5,
                1,
                25
            ],
            "translation" : [
                -30.049104690551758,
                0.627856969833374,
                7.138319969177246
            ]
        }
    ],
    "materials" : [
        {
            "doubleSided" : true,
            "name" : "red",
            "pbrMetallicRoughness" : {
                "baseColorFactor" : [
                    1,
                    0,
                    0,
                    1
                ],
                "metallicFactor" : 0,
                "roughnessFactor" : 0.5
            }
        },
        {
            "doubleSided" : true,
            "name" : "white",
            "pbrMetallicRoughness" : {
                "baseColorFactor" : [
                    0.26242709159851074,
                    0.26242709159851074,
                    0.26242709159851074,
                    1
                ],
                "metallicFactor" : 0,
                "roughnessFactor" : 1
            }
        },
        {
            "doubleSided" : true,
            "name" : "checkered",
            "pbrMetallicRoughness" : {
                "metallicFactor" : 0,
                "roughnessFactor" : 0.5
            }
        }
    ],
    "meshes" : [
        {
            "name" : "Plane",
            "primitives" : [
                {
                    "attributes" : {
                        "POSITION" : 0,
                        "NORMAL" : 1,
                        "TEXCOORD_0" : 2
                    },
                    "indices" : 3,
                    "material" : 0
                },
                {
                    "attributes" : {
                        "POSITION" : 4,
                        "NORMAL" : 5,
                        "TEXCOORD_0" : 6
                    },
                    "indices" : 7,
                    "material" : 1
                },
                {
                    "attributes" : {
                        "POSITION" : 8,
                        "NORMAL" : 9,
                        "TEXCOORD_0" : 10
                    },
                    "indices" : 11,
                    "material" : 2
                }
            ]
        }
    ],
    "accessors" : [
        {
            "bufferView" : 0,
            "componentType" : 5126,
            "count" : 416,
            "max" : [
                1.2557158470153809,
                33.052913665771484,
                2.63461971282959
            ],
            "min" : [
                -0.744288980960846,
                -22.954702377319336,
                -3.2056851387023926
            ],
            "type" : "VEC3"
        },
        {
            "bufferView" : 1,
            "componentType" : 5126,
            "count" : 416,
            "type" : "VEC3"
        },
        {
            "bufferView" : 2,
            "componentType" : 5126,
            "count" : 416,
            "type" : "VEC2"
        },
        {
            "bufferView" : 3,
            "componentType" : 5123,
            "count" : 624,
            "type" : "SCALAR"
        },
        {
            "bufferView" : 4,
            "componentType" : 5126,
            "count" : 1407,
            "max" : [
                1.2557159662246704,
                33.050315856933594,
                2.634488105773926
            ],
            "min" : [
                -6.744284629821777,
                -23.150896072387695,
                -3.2055540084838867
            ],
            "type" : "VEC3"
        },
        {
            "bufferView" : 5,
            "componentType" : 5126,
            "count" : 1407,
            "type" : "VEC3"
        },
        {
            "bufferView" : 6,
            "componentType" : 5126,
            "count" : 1407,
            "type" : "VEC2"
        },
        {
            "bufferView" : 7,
            "componentType" : 5123,
            "count" : 2187,
            "type" : "SCALAR"
        },
        {
            "bufferView" : 8,
            "componentType" : 5126,
            "count" : 4,
            "max" : [
                -4.744284152984619,
                -17.0508975982666,
                0.954467236995697
            ],
            "min" : [
                -6.744284629821777,
                -22.85089683532715,
                0.954467236995697
            ],
            "type" : "VEC3"
        },
        {
            "bufferView" : 9,
            "componentType" : 5126,
            "count" : 4,
            "type" : "VEC3"
        },
        {
            "bufferView" : 10,
            "componentType" : 5126,
            "count" : 4,
            "type" : "VEC2"
        },
        {
            "bufferView" : 11,
            "componentType" : 5123,
            "count" : 6,
            "type" : "SCALAR"
        }
    ],
    "bufferViews" : [
        {
            "buffer" : 0,
            "byteLength" : 4992,
            "byteOffset" : 0
        },
        {
            "buffer" : 0,
            "byteLength" : 4992,
            "byteOffset" : 4992
        },
        {
            "buffer" : 0,
            "byteLength" : 3328,
            "byteOffset" : 9984
        },
        {
            "buffer" : 0,
            "byteLength" : 1248,
            "byteOffset" : 13312
        },
        {
            "buffer" : 0,
            "byteLength" : 16884,
            "byteOffset" : 14560
        },
        {
            "buffer" : 0,
            "byteLength" : 16884,
            "byteOffset" : 31444
        },
        {
            "buffer" : 0,
            "byteLength" : 11256,
            "byteOffset" : 48328
        },
        {
            "buffer" : 0,
            "byteLength" : 4374,
            "byteOffset" : 59584
        },
        {
            "buffer" : 0,
            "byteLength" : 48,
            "byteOffset" : 63960
        },
        {
            "buffer" : 0,
            "byteLength" : 48,
            "byteOffset" : 64008
        },
        {
            "buffer" : 0,
            "byteLength" : 32,
            "byteOffset" : 64056
        },
        {
            "buffer" : 0,
            "byteLength" : 12,
            "byteOffset" : 64088
        }
    ],
    "buffers" : [
        {
            "byteLength" : 64100,
            "uri" : "steza.bin"
        }
    ]
}
