{
    "asset" : {
        "generator" : "Khronos glTF Blender I/O v1.0.5",
        "version" : "2.0"
    },
    "scene" : 0,
    "scenes" : [
        {
            "name" : "Scene",
            "nodes" : [
                0,
                1
            ]
        }
    ],
    "nodes" : [
        {
            "mesh" : 0,
            "name" : "steza",
            "rotation" : [
                0,
                0,
                -0.7071067690849304,
                0.7071067690849304
            ],
            "scale" : [
                0.5,
                1,
                25
            ],
            "translation" : [
                -30.049104690551758,
                0.627856969833374,
                7.138319969177246
            ]
        },
        {
            "mesh" : 1,
            "name" : "formula",
            "rotation" : [
                0,
                0,
                -0.7071067690849304,
                0.7071068286895752
            ],
            "scale" : [
                0.08990342170000076,
                0.04495172202587128,
                0.08990342170000076
            ],
            "translation" : [
                -50,
                0.198617622256279,
                29.048433303833008
            ]
        }
    ],
    "materials" : [
        {
            "doubleSided" : true,
            "name" : "red",
            "pbrMetallicRoughness" : {
                "baseColorFactor" : [
                    1,
                    0,
                    0,
                    1
                ],
                "metallicFactor" : 0,
                "roughnessFactor" : 0.5
            }
        },
        {
            "doubleSided" : true,
            "name" : "white",
            "pbrMetallicRoughness" : {
                "baseColorFactor" : [
                    0.26242709159851074,
                    0.26242709159851074,
                    0.26242709159851074,
                    1
                ],
                "metallicFactor" : 0,
                "roughnessFactor" : 1
            }
        },
        {
            "doubleSided" : true,
            "name" : "checkered",
            "pbrMetallicRoughness" : {
                "metallicFactor" : 0,
                "roughnessFactor" : 0.5
            }
        },
        {
            "doubleSided" : true,
            "name" : "black",
            "pbrMetallicRoughness" : {
                "baseColorFactor" : [
                    0,
                    0,
                    0,
                    1
                ],
                "metallicFactor" : 0,
                "roughnessFactor" : 0.5
            }
        },
        {
            "doubleSided" : true,
            "name" : "green",
            "pbrMetallicRoughness" : {
                "baseColorFactor" : [
                    0,
                    1,
                    0,
                    1
                ],
                "metallicFactor" : 0,
                "roughnessFactor" : 0.5
            }
        },
        {
            "doubleSided" : true,
            "name" : "red.001",
            "pbrMetallicRoughness" : {
                "baseColorFactor" : [
                    1,
                    0,
                    0,
                    1
                ],
                "metallicFactor" : 0.8282828330993652,
                "roughnessFactor" : 0.4000000059604645
            }
        },
        {
            "doubleSided" : true,
            "name" : "blackB",
            "pbrMetallicRoughness" : {
                "baseColorFactor" : [
                    0,
                    0,
                    0,
                    1
                ],
                "metallicFactor" : 0,
                "roughnessFactor" : 0.5
            }
        }
    ],
    "meshes" : [
        {
            "name" : "Plane",
            "primitives" : [
                {
                    "attributes" : {
                        "POSITION" : 0,
                        "NORMAL" : 1,
                        "TEXCOORD_0" : 2
                    },
                    "indices" : 3,
                    "material" : 0
                },
                {
                    "attributes" : {
                        "POSITION" : 4,
                        "NORMAL" : 5,
                        "TEXCOORD_0" : 6
                    },
                    "indices" : 7,
                    "material" : 1
                },
                {
                    "attributes" : {
                        "POSITION" : 8,
                        "NORMAL" : 9,
                        "TEXCOORD_0" : 10
                    },
                    "indices" : 11,
                    "material" : 2
                }
            ]
        },
        {
            "name" : "Cylinder.002",
            "primitives" : [
                {
                    "attributes" : {
                        "POSITION" : 12,
                        "NORMAL" : 13,
                        "TEXCOORD_0" : 14
                    },
                    "indices" : 15,
                    "material" : 3
                },
                {
                    "attributes" : {
                        "POSITION" : 16,
                        "NORMAL" : 17,
                        "TEXCOORD_0" : 18
                    },
                    "indices" : 19,
                    "material" : 4
                },
                {
                    "attributes" : {
                        "POSITION" : 20,
                        "NORMAL" : 21,
                        "TEXCOORD_0" : 22
                    },
                    "indices" : 23,
                    "material" : 5
                },
                {
                    "attributes" : {
                        "POSITION" : 24,
                        "NORMAL" : 25,
                        "TEXCOORD_0" : 26
                    },
                    "indices" : 27,
                    "material" : 6
                }
            ]
        }
    ],
    "accessors" : [
        {
            "bufferView" : 0,
            "componentType" : 5126,
            "count" : 416,
            "max" : [
                1.2557158470153809,
                33.052913665771484,
                2.63461971282959
            ],
            "min" : [
                -0.744288980960846,
                -22.954702377319336,
                -3.2056851387023926
            ],
            "type" : "VEC3"
        },
        {
            "bufferView" : 1,
            "componentType" : 5126,
            "count" : 416,
            "type" : "VEC3"
        },
        {
            "bufferView" : 2,
            "componentType" : 5126,
            "count" : 416,
            "type" : "VEC2"
        },
        {
            "bufferView" : 3,
            "componentType" : 5123,
            "count" : 624,
            "type" : "SCALAR"
        },
        {
            "bufferView" : 4,
            "componentType" : 5126,
            "count" : 1407,
            "max" : [
                1.2557159662246704,
                33.050315856933594,
                2.634488105773926
            ],
            "min" : [
                -6.744284629821777,
                -23.150896072387695,
                -3.2055540084838867
            ],
            "type" : "VEC3"
        },
        {
            "bufferView" : 5,
            "componentType" : 5126,
            "count" : 1407,
            "type" : "VEC3"
        },
        {
            "bufferView" : 6,
            "componentType" : 5126,
            "count" : 1407,
            "type" : "VEC2"
        },
        {
            "bufferView" : 7,
            "componentType" : 5123,
            "count" : 2187,
            "type" : "SCALAR"
        },
        {
            "bufferView" : 8,
            "componentType" : 5126,
            "count" : 4,
            "max" : [
                -4.744284152984619,
                -17.0508975982666,
                0.954467236995697
            ],
            "min" : [
                -6.744284629821777,
                -22.85089683532715,
                0.954467236995697
            ],
            "type" : "VEC3"
        },
        {
            "bufferView" : 9,
            "componentType" : 5126,
            "count" : 4,
            "type" : "VEC3"
        },
        {
            "bufferView" : 10,
            "componentType" : 5126,
            "count" : 4,
            "type" : "VEC2"
        },
        {
            "bufferView" : 11,
            "componentType" : 5123,
            "count" : 6,
            "type" : "SCALAR"
        },
        {
            "bufferView" : 12,
            "componentType" : 5126,
            "count" : 390,
            "max" : [
                1.6481385231018066,
                7.665694236755371,
                9.660517692565918
            ],
            "min" : [
                -0.3518616557121277,
                -7.667637825012207,
                7.660517692565918
            ],
            "type" : "VEC3"
        },
        {
            "bufferView" : 13,
            "componentType" : 5126,
            "count" : 390,
            "type" : "VEC3"
        },
        {
            "bufferView" : 14,
            "componentType" : 5126,
            "count" : 390,
            "type" : "VEC2"
        },
        {
            "bufferView" : 15,
            "componentType" : 5123,
            "count" : 1116,
            "type" : "SCALAR"
        },
        {
            "bufferView" : 16,
            "componentType" : 5126,
            "count" : 1115,
            "max" : [
                1.0148050785064697,
                3.189131736755371,
                4.098550796508789
            ],
            "min" : [
                -2.9875407218933105,
                -3.191074848175049,
                1.0523018836975098
            ],
            "type" : "VEC3"
        },
        {
            "bufferView" : 17,
            "componentType" : 5126,
            "count" : 1115,
            "type" : "VEC3"
        },
        {
            "bufferView" : 18,
            "componentType" : 5126,
            "count" : 1115,
            "type" : "VEC2"
        },
        {
            "bufferView" : 19,
            "componentType" : 5123,
            "count" : 5784,
            "type" : "SCALAR"
        },
        {
            "bufferView" : 20,
            "componentType" : 5126,
            "count" : 186,
            "max" : [
                1.2674717903137207,
                9.435721397399902,
                15.260522842407227
            ],
            "min" : [
                -3.818528652191162,
                -9.430944442749023,
                -6.406146049499512
            ],
            "type" : "VEC3"
        },
        {
            "bufferView" : 21,
            "componentType" : 5126,
            "count" : 186,
            "type" : "VEC3"
        },
        {
            "bufferView" : 22,
            "componentType" : 5126,
            "count" : 186,
            "type" : "VEC2"
        },
        {
            "bufferView" : 23,
            "componentType" : 5123,
            "count" : 252,
            "type" : "SCALAR"
        },
        {
            "bufferView" : 24,
            "componentType" : 5126,
            "count" : 390,
            "max" : [
                1.5981390476226807,
                12.77680778503418,
                -1.4838533401489258
            ],
            "min" : [
                -1.7351951599121094,
                -12.778748512268066,
                -4.817187309265137
            ],
            "type" : "VEC3"
        },
        {
            "bufferView" : 25,
            "componentType" : 5126,
            "count" : 390,
            "type" : "VEC3"
        },
        {
            "bufferView" : 26,
            "componentType" : 5126,
            "count" : 390,
            "type" : "VEC2"
        },
        {
            "bufferView" : 27,
            "componentType" : 5123,
            "count" : 1116,
            "type" : "SCALAR"
        }
    ],
    "bufferViews" : [
        {
            "buffer" : 0,
            "byteLength" : 4992,
            "byteOffset" : 0
        },
        {
            "buffer" : 0,
            "byteLength" : 4992,
            "byteOffset" : 4992
        },
        {
            "buffer" : 0,
            "byteLength" : 3328,
            "byteOffset" : 9984
        },
        {
            "buffer" : 0,
            "byteLength" : 1248,
            "byteOffset" : 13312
        },
        {
            "buffer" : 0,
            "byteLength" : 16884,
            "byteOffset" : 14560
        },
        {
            "buffer" : 0,
            "byteLength" : 16884,
            "byteOffset" : 31444
        },
        {
            "buffer" : 0,
            "byteLength" : 11256,
            "byteOffset" : 48328
        },
        {
            "buffer" : 0,
            "byteLength" : 4374,
            "byteOffset" : 59584
        },
        {
            "buffer" : 0,
            "byteLength" : 48,
            "byteOffset" : 63960
        },
        {
            "buffer" : 0,
            "byteLength" : 48,
            "byteOffset" : 64008
        },
        {
            "buffer" : 0,
            "byteLength" : 32,
            "byteOffset" : 64056
        },
        {
            "buffer" : 0,
            "byteLength" : 12,
            "byteOffset" : 64088
        },
        {
            "buffer" : 0,
            "byteLength" : 4680,
            "byteOffset" : 64100
        },
        {
            "buffer" : 0,
            "byteLength" : 4680,
            "byteOffset" : 68780
        },
        {
            "buffer" : 0,
            "byteLength" : 3120,
            "byteOffset" : 73460
        },
        {
            "buffer" : 0,
            "byteLength" : 2232,
            "byteOffset" : 76580
        },
        {
            "buffer" : 0,
            "byteLength" : 13380,
            "byteOffset" : 78812
        },
        {
            "buffer" : 0,
            "byteLength" : 13380,
            "byteOffset" : 92192
        },
        {
            "buffer" : 0,
            "byteLength" : 8920,
            "byteOffset" : 105572
        },
        {
            "buffer" : 0,
            "byteLength" : 11568,
            "byteOffset" : 114492
        },
        {
            "buffer" : 0,
            "byteLength" : 2232,
            "byteOffset" : 126060
        },
        {
            "buffer" : 0,
            "byteLength" : 2232,
            "byteOffset" : 128292
        },
        {
            "buffer" : 0,
            "byteLength" : 1488,
            "byteOffset" : 130524
        },
        {
            "buffer" : 0,
            "byteLength" : 504,
            "byteOffset" : 132012
        },
        {
            "buffer" : 0,
            "byteLength" : 4680,
            "byteOffset" : 132516
        },
        {
            "buffer" : 0,
            "byteLength" : 4680,
            "byteOffset" : 137196
        },
        {
            "buffer" : 0,
            "byteLength" : 3120,
            "byteOffset" : 141876
        },
        {
            "buffer" : 0,
            "byteLength" : 2232,
            "byteOffset" : 144996
        }
    ],
    "buffers" : [
        {
            "byteLength" : 147228,
            "uri" : "steza2.bin"
        }
    ]
}
